<svg width="286" height="286" viewBox="0 0 286 286" fill="none" xmlns="http://www.w3.org/2000/svg">
<path fill-rule="evenodd" clip-rule="evenodd" d="M225.441 259.865C160.943 305.361 71.6399 289.934 26.1396 225.435C-19.3607 160.935 -3.93775 71.6321 60.5594 26.1352C125.057 -19.3616 214.36 -3.93397 259.86 60.5655C305.36 125.065 289.938 214.368 225.441 259.865Z" fill="#838391"/>
<path fill-rule="evenodd" clip-rule="evenodd" d="M238.776 112.534C235.674 119.63 227.407 122.84 220.327 119.699C213.246 116.557 210.015 108.246 213.118 101.151C216.219 94.0552 224.486 90.8449 231.566 93.9862C238.648 97.1274 241.877 105.438 238.776 112.534Z" fill="#FAFAFA"/>
<path d="M70.2736 191.158L173.301 191.167C189.058 191.169 198.992 190.937 203.101 190.473C207.21 190.007 210.407 188.321 212.691 185.412C214.975 182.504 216.27 177.327 216.575 169.881L216.726 166.216L225.025 166.217L221.873 243.178L213.572 243.177L213.815 237.243C214.154 228.983 213.142 223.603 210.778 221.101C208.414 218.599 205.526 217.145 202.116 216.737C198.704 216.329 188.758 216.124 172.278 216.123L127.531 216.119C110.21 216.118 99.5921 216.902 95.6785 218.472C91.765 220.042 89.2734 222.136 88.2039 224.754C87.1342 227.371 86.466 231.938 86.1992 238.454L86.0062 243.165H77.7062C76.3893 222.455 73.8594 206.399 70.1163 194.998L70.2736 191.158Z" fill="#FAFAFA"/>
<path d="M106.603 190.813L151.324 157.398L107.387 88.913C100.641 78.3982 95.4963 71.7702 91.952 69.0288C88.4075 66.2875 83.9638 65.2757 78.6207 65.9932C73.2776 66.7108 68.3731 68.7382 63.9071 72.0753C55.2164 78.5691 50.0984 87.9876 48.5534 100.331L41.0731 102.032C40.9095 93.1481 43.4877 84.4332 48.8081 75.8868C54.1284 67.3404 60.5303 60.2711 68.014 54.6792C76.7046 48.1854 85.5967 44.4409 94.6899 43.4453C103.783 42.4498 110.831 43.972 115.833 48.0118C120.836 52.0516 127.568 60.6662 136.03 73.8557L177.216 138.052L198.761 121.952L202.844 128.316C193.064 135.896 186.235 145.707 182.353 157.749C178.472 169.791 179.026 182.205 184.013 194.988L178.219 199.317L155.408 163.761L110.686 197.178L106.603 190.813Z" fill="#FAFAFA"/>
</svg>
